<svg width="8" height="16" viewBox="0 0 8 16" fill="none" xmlns="http://www.w3.org/2000/svg">
<path d="M6.99934 4.0013V11.668C6.99934 13.1413 5.80601 14.3346 4.33268 14.3346C2.85935 14.3346 1.66601 13.1413 1.66601 11.668V3.33464C1.66601 2.41464 2.41268 1.66797 3.33268 1.66797C4.25268 1.66797 4.99935 2.41464 4.99935 3.33464V10.3346C4.99935 10.7013 4.69935 11.0013 4.33268 11.0013C3.96601 11.0013 3.66601 10.7013 3.66601 10.3346V4.0013H2.66601V10.3346C2.66601 11.2546 3.41268 12.0013 4.33268 12.0013C5.25268 12.0013 5.99935 11.2546 5.99935 10.3346V3.33464C5.99935 1.8613 4.80601 0.667969 3.33268 0.667969C1.85935 0.667969 0.666016 1.8613 0.666016 3.33464V11.668C0.666016 13.6946 2.30601 15.3346 4.33268 15.3346C6.35934 15.3346 7.99934 13.6946 7.99934 11.668V4.0013H6.99934Z" fill="#2678B7"/>
</svg>
