<svg width="18" height="21" viewBox="0 0 18 21" fill="none" xmlns="http://www.w3.org/2000/svg">
<path d="M7.5 4.67969C7.5 4.5625 7.42188 4.44531 7.34375 4.36719C7.26562 4.28906 7.14844 4.21094 7.03125 4.21094H5.46875C5.3125 4.21094 5.19531 4.28906 5.11719 4.36719C5.03906 4.44531 5 4.5625 5 4.67969V6.24219C5 6.39844 5.03906 6.51562 5.11719 6.59375C5.19531 6.67188 5.3125 6.71094 5.46875 6.71094H7.03125C7.14844 6.71094 7.26562 6.67188 7.34375 6.59375C7.42188 6.51562 7.5 6.39844 7.5 6.24219V4.67969ZM12.0312 4.21094C12.1484 4.21094 12.2656 4.28906 12.3438 4.36719C12.4219 4.44531 12.5 4.5625 12.5 4.67969V6.24219C12.5 6.39844 12.4219 6.51562 12.3438 6.59375C12.2656 6.67188 12.1484 6.71094 12.0312 6.71094H10.4688C10.3125 6.71094 10.1953 6.67188 10.1172 6.59375C10.0391 6.51562 10 6.39844 10 6.24219V4.67969C10 4.5625 10.0391 4.44531 10.1172 4.36719C10.1953 4.28906 10.3125 4.21094 10.4688 4.21094H12.0312ZM7.03125 7.96094C7.14844 7.96094 7.26562 8.03906 7.34375 8.11719C7.42188 8.19531 7.5 8.3125 7.5 8.42969V9.99219C7.5 10.1484 7.42188 10.2656 7.34375 10.3438C7.26562 10.4219 7.14844 10.4609 7.03125 10.4609H5.46875C5.3125 10.4609 5.19531 10.4219 5.11719 10.3438C5.03906 10.2656 5 10.1484 5 9.99219V8.42969C5 8.3125 5.03906 8.19531 5.11719 8.11719C5.19531 8.03906 5.3125 7.96094 5.46875 7.96094H7.03125ZM12.0312 7.96094C12.1484 7.96094 12.2656 8.03906 12.3438 8.11719C12.4219 8.19531 12.5 8.3125 12.5 8.42969V9.99219C12.5 10.1484 12.4219 10.2656 12.3438 10.3438C12.2656 10.4219 12.1484 10.4609 12.0312 10.4609H10.4688C10.3125 10.4609 10.1953 10.4219 10.1172 10.3438C10.0391 10.2656 10 10.1484 10 9.99219V8.42969C10 8.3125 10.0391 8.19531 10.1172 8.11719C10.1953 8.03906 10.3125 7.96094 10.4688 7.96094H12.0312ZM7.03125 11.7109C7.14844 11.7109 7.26562 11.7891 7.34375 11.8672C7.42188 11.9453 7.5 12.0625 7.5 12.1797V13.7422C7.5 13.8984 7.42188 14.0156 7.34375 14.0938C7.26562 14.1719 7.14844 14.2109 7.03125 14.2109H5.46875C5.3125 14.2109 5.19531 14.1719 5.11719 14.0938C5.03906 14.0156 5 13.8984 5 13.7422V12.1797C5 12.0625 5.03906 11.9453 5.11719 11.8672C5.19531 11.7891 5.3125 11.7109 5.46875 11.7109H7.03125ZM12.0312 11.7109C12.1484 11.7109 12.2656 11.7891 12.3438 11.8672C12.4219 11.9453 12.5 12.0625 12.5 12.1797V13.7422C12.5 13.8984 12.4219 14.0156 12.3438 14.0938C12.2656 14.1719 12.1484 14.2109 12.0312 14.2109H10.4688C10.3125 14.2109 10.1953 14.1719 10.1172 14.0938C10.0391 14.0156 10 13.8984 10 13.7422V12.1797C10 12.0625 10.0391 11.9453 10.1172 11.8672C10.1953 11.7891 10.3125 11.7109 10.4688 11.7109H12.0312ZM17.5 19.7188C17.5 19.6016 17.4219 19.4844 17.3438 19.4062C17.2656 19.3281 17.1484 19.25 17.0312 19.25H16.25V1.4375C16.25 1.20312 16.1328 0.96875 15.9766 0.773438C15.7812 0.617188 15.5469 0.5 15.3125 0.5H2.1875C1.91406 0.5 1.67969 0.617188 1.52344 0.773438C1.32812 0.96875 1.25 1.20312 1.25 1.4375V19.25H0.46875C0.3125 19.25 0.195312 19.3281 0.117188 19.4062C0.0390625 19.4844 0 19.6016 0 19.7188V20.5H17.5V19.7188ZM15 19.25H10V15.9297C10 15.8125 9.92188 15.6953 9.84375 15.6172C9.76562 15.5391 9.64844 15.4609 9.53125 15.4609H7.96875C7.8125 15.4609 7.69531 15.5391 7.61719 15.6172C7.53906 15.6953 7.5 15.8125 7.5 15.9297V19.25H2.5V1.75H15V19.25Z" fill="#0E69AF"/>
</svg>
