<svg width="12" height="16" viewBox="0 0 12 16" fill="none" xmlns="http://www.w3.org/2000/svg">
<path d="M2.25 0.5H9.75C10.575 0.5 11.25 1.175 11.25 2V14C11.25 14.825 10.575 15.5 9.75 15.5H2.25C1.425 15.5 0.75 14.825 0.75 14V2C0.75 1.175 1.425 0.5 2.25 0.5ZM2.25 2V5H9.75V2H2.25ZM2.25 6.5V8H3.75V6.5H2.25ZM5.25 6.5V8H6.75V6.5H5.25ZM8.25 6.5V8H9.75V6.5H8.25ZM2.25 9.5V11H3.75V9.5H2.25ZM5.25 9.5V11H6.75V9.5H5.25ZM8.25 9.5V11H9.75V9.5H8.25ZM2.25 12.5V14H3.75V12.5H2.25ZM5.25 12.5V14H6.75V12.5H5.25ZM8.25 12.5V14H9.75V12.5H8.25Z" fill="#0E69AF"/>
</svg>
