<svg width="14" height="16" viewBox="0 0 14 16" fill="none" xmlns="http://www.w3.org/2000/svg">
<path d="M12.5 2C12.9062 2 13.25 2.15625 13.5625 2.4375C13.8438 2.75 14 3.09375 14 3.5V14.5C14 14.9375 13.8438 15.2812 13.5625 15.5625C13.25 15.875 12.9062 16 12.5 16H1.5C1.0625 16 0.71875 15.875 0.4375 15.5625C0.125 15.2812 0 14.9375 0 14.5V3.5C0 3.09375 0.125 2.75 0.4375 2.4375C0.71875 2.15625 1.0625 2 1.5 2H3V0.5C3 0.375 3.03125 0.25 3.125 0.15625C3.21875 0.0625 3.34375 0 3.5 0H4.5C4.625 0 4.75 0.0625 4.84375 0.15625C4.9375 0.25 5 0.375 5 0.5V2H9V0.5C9 0.375 9.03125 0.25 9.125 0.15625C9.21875 0.0625 9.34375 0 9.5 0H10.5C10.625 0 10.75 0.0625 10.8438 0.15625C10.9375 0.25 11 0.375 11 0.5V2H12.5ZM12.5 5H9.5V7.5H12.5V5ZM5.5 11H8.5V8.5H5.5V11ZM8.5 12H5.5V14.5H8.5V12ZM4.5 11V8.5H1.5V11H4.5ZM5.5 7.5H8.5V5H5.5V7.5ZM9.5 8.5V11H12.5V8.5H9.5ZM4.5 5H1.5V7.5H4.5V5ZM1.5 14.3125C1.5 14.375 1.5 14.4062 1.5625 14.4375C1.59375 14.5 1.625 14.5 1.6875 14.5H4.5V12H1.5V14.3125ZM12.3125 14.5C12.3438 14.5 12.375 14.5 12.4375 14.4375C12.4688 14.4062 12.5 14.375 12.5 14.3125V12H9.5V14.5H12.3125Z" fill="#B4B4B4"/>
</svg>
