<svg width="14" height="19" viewBox="0 0 14 19" fill="none" xmlns="http://www.w3.org/2000/svg">
<path d="M11.59 6.84216H10V1.579C10 1.00005 9.55 0.526367 9 0.526367H5C4.45 0.526367 4 1.00005 4 1.579V6.84216H2.41C1.52 6.84216 1.07 7.979 1.7 8.64216L6.29 13.4737C6.68 13.8843 7.31 13.8843 7.7 13.4737L12.29 8.64216C12.92 7.979 12.48 6.84216 11.59 6.84216ZM0 17.3685C0 17.9474 0.45 18.4211 1 18.4211H13C13.55 18.4211 14 17.9474 14 17.3685C14 16.7895 13.55 16.3158 13 16.3158H1C0.45 16.3158 0 16.7895 0 17.3685Z" fill="#0E69AF"/>
</svg>
