<svg xmlns="http://www.w3.org/2000/svg" width="512" height="512" viewBox="0 0 512 512">
  <path fill-rule="evenodd" d="M320,277.335938 C331.796875,277.335938 341.332031,286.894531 341.332031,298.667969 L341.332031,384.003906 C341.332031,419.289062 312.617188,448.003906 277.332031,448.003906 L213.332031,448.003906 L213.332031,469.335938 C213.332031,492.867188 194.199219,512.003906 170.667969,512.003906 C166.121094,512.003906 161.792969,511.363281 157.441406,510.019531 L29.054688,467.222656 C11.605469,461.164062 2.84217094e-14,444.886719 2.84217094e-14,426.667969 L2.84217094e-14,42.667969 C2.84217094e-14,19.136719 19.136719,0.00390625 42.667969,0.00390625 C43.710938,0.00390625 44.691406,0.386719 45.71875,0.472656 C46.507812,0.367188 47.1875,0.00390625 48,0.00390625 L277.332031,0.00390625 C312.617188,0.00390625 341.332031,28.71875 341.332031,64.003906 L341.332031,128.003906 C341.332031,139.777344 331.796875,149.335938 320,149.335938 C308.203125,149.335938 298.667969,139.777344 298.667969,128.003906 L298.667969,64.003906 C298.667969,52.246094 289.109375,42.667969 277.332031,42.667969 L177.960938,42.667969 L184.277344,44.78125 C201.726562,50.839844 213.332031,67.117188 213.332031,85.335938 L213.332031,405.335938 L277.332031,405.335938 C289.109375,405.335938 298.667969,395.757812 298.667969,384.003906 L298.667969,298.667969 C298.667969,286.894531 308.203125,277.335938 320,277.335938 Z M505.75,198.253906 C514.089844,206.59375 514.089844,220.078125 505.75,228.417969 L420.414062,313.753906 C414.316406,319.851562 405.140625,321.6875 397.164062,318.382812 C389.207031,315.074219 384,307.289062 384,298.667969 L384,234.667969 L298.667969,234.667969 C286.890625,234.667969 277.332031,225.113281 277.332031,213.335938 C277.332031,201.558594 286.890625,192.003906 298.667969,192.003906 L384,192.003906 L384,128.003906 C384,119.382812 389.207031,111.597656 397.164062,108.289062 C405.140625,104.984375 414.316406,106.820312 420.414062,112.921875 L505.75,198.253906 Z"/>
</svg>
