<svg width="14" height="14" viewBox="0 0 14 14" xmlns="http://www.w3.org/2000/svg">
	<path d="M12.9375 6.125C13.0781 6.125 13.2188 6.19531 13.3242 6.30078C13.4297 6.40625 13.5 6.54688 13.5 6.6875V7.8125C13.5 7.98828 13.4297 8.12891 13.3242 8.23438C13.2188 8.33984 13.0781 8.375 12.9375 8.375H7.875V13.4375C7.875 13.6133 7.80469 13.7539 7.69922 13.8594C7.59375 13.9648 7.45312 14 7.3125 14H6.1875C6.01172 14 5.87109 13.9648 5.76562 13.8594C5.66016 13.7539 5.625 13.6133 5.625 13.4375V8.375H0.5625C0.386719 8.375 0.246094 8.33984 0.140625 8.23438C0.0351562 8.12891 0 7.98828 0 7.8125V6.6875C0 6.54688 0.0351562 6.40625 0.140625 6.30078C0.246094 6.19531 0.386719 6.125 0.5625 6.125H5.625V1.0625C5.625 0.921875 5.66016 0.78125 5.76562 0.675781C5.87109 0.570312 6.01172 0.5 6.1875 0.5H7.3125C7.45312 0.5 7.59375 0.570312 7.69922 0.675781C7.80469 0.78125 7.875 0.921875 7.875 1.0625V6.125H12.9375Z"/>
</svg>
