<svg width="20" height="22" viewBox="0 0 20 22" fill="none" xmlns="http://www.w3.org/2000/svg">
<path d="M13.3563 2.8823C10.3051 -0.329256 5.33907 -0.329256 2.28789 2.8823C-0.762629 6.09455 -0.762629 11.3209 2.28789 14.5331C5.00504 17.3924 9.23688 17.6988 12.2861 15.466C12.3502 15.7856 12.4971 16.0905 12.7332 16.3391L17.1767 21.0161C17.8242 21.6963 18.8706 21.6963 19.5148 21.0161C20.1617 20.3352 20.1617 19.2339 19.5148 18.5551L15.0714 13.8766C14.8365 13.6302 14.5462 13.4749 14.2426 13.4074C16.3651 10.1972 16.0741 5.74367 13.3563 2.8823ZM11.9534 13.0565C9.6754 15.4542 5.96809 15.4542 3.69078 13.0565C1.41414 10.6588 1.41414 6.75733 3.69078 4.35963C5.96809 1.96262 9.6754 1.96262 11.9534 4.35963C14.2313 6.75733 14.2313 10.6588 11.9534 13.0565Z" fill="white"/>
</svg>
