<svg width="20" height="22" viewBox="0 0 20 22" fill="none" xmlns="http://www.w3.org/2000/svg">
<path d="M17.6502 12.0263C17.6888 11.6973 17.7145 11.3552 17.7145 10.9999C17.7145 10.6447 17.6888 10.3026 17.6373 9.97363L19.8102 8.23679C20.0031 8.0789 20.0545 7.78942 19.9388 7.56574L17.8816 3.921C17.753 3.68416 17.483 3.60521 17.2516 3.68416L14.693 4.73679C14.153 4.31574 13.5872 3.97363 12.9572 3.71047L12.5715 0.921001C12.5329 0.657843 12.3143 0.473633 12.0572 0.473633H7.94281C7.68566 0.473633 7.47994 0.657843 7.44137 0.921001L7.05565 3.71047C6.42563 3.97363 5.84705 4.3289 5.31989 4.73679L2.76126 3.68416C2.52982 3.59205 2.25982 3.68416 2.13124 3.921L0.0740529 7.56574C-0.0545216 7.80258 -0.00309159 8.0789 0.202628 8.23679L2.37554 9.97363C2.32411 10.3026 2.28553 10.6578 2.28553 10.9999C2.28553 11.3421 2.31125 11.6973 2.36268 12.0263L0.18977 13.7631C-0.00309189 13.921 -0.0545215 14.2105 0.0611955 14.4342L2.11839 18.0789C2.24696 18.3157 2.51697 18.3947 2.7484 18.3157L5.30703 17.2631C5.84705 17.6842 6.41277 18.0263 7.04279 18.2894L7.42851 21.0789C7.47994 21.3421 7.68566 21.5263 7.94281 21.5263H12.0572C12.3143 21.5263 12.5329 21.3421 12.5586 21.0789L12.9444 18.2894C13.5744 18.0263 14.153 17.671 14.6801 17.2631L17.2387 18.3157C17.4702 18.4078 17.7402 18.3157 17.8688 18.0789L19.9259 14.4342C20.0545 14.1973 20.0031 13.921 19.7974 13.7631L17.6502 12.0263ZM10 14.9473C7.87852 14.9473 6.14277 13.171 6.14277 10.9999C6.14277 8.8289 7.87852 7.05258 10 7.05258C12.1215 7.05258 13.8572 8.8289 13.8572 10.9999C13.8572 13.171 12.1215 14.9473 10 14.9473Z" fill="#0E69AF"/>
</svg>
