<svg width="25" height="21" viewBox="0 0 25 21" fill="none" xmlns="http://www.w3.org/2000/svg">
<path d="M23.75 14.25C24.0625 14.25 24.375 14.4062 24.6094 14.6406C24.8438 14.875 25 15.1875 25 15.5V19.25C25 19.6016 24.8438 19.9141 24.6094 20.1484C24.375 20.3828 24.0625 20.5 23.75 20.5H20C19.6484 20.5 19.3359 20.3828 19.1016 20.1484C18.8672 19.9141 18.75 19.6016 18.75 19.25V15.5C18.75 15.1875 18.8672 14.875 19.1016 14.6406C19.3359 14.4062 19.6484 14.25 20 14.25H21.25V10.5H13.125V14.25H14.375C14.6875 14.25 15 14.4062 15.2344 14.6406C15.4688 14.875 15.625 15.1875 15.625 15.5V19.25C15.625 19.6016 15.4688 19.9141 15.2344 20.1484C15 20.3828 14.6875 20.5 14.375 20.5H10.625C10.2734 20.5 9.96094 20.3828 9.72656 20.1484C9.49219 19.9141 9.375 19.6016 9.375 19.25V15.5C9.375 15.1875 9.49219 14.875 9.72656 14.6406C9.96094 14.4062 10.2734 14.25 10.625 14.25H11.875V10.5H3.75V14.25H5C5.3125 14.25 5.625 14.4062 5.85938 14.6406C6.09375 14.875 6.25 15.1875 6.25 15.5V19.25C6.25 19.6016 6.09375 19.9141 5.85938 20.1484C5.625 20.3828 5.3125 20.5 5 20.5H1.25C0.898438 20.5 0.585938 20.3828 0.351562 20.1484C0.117188 19.9141 0 19.6016 0 19.25V15.5C0 15.1875 0.117188 14.875 0.351562 14.6406C0.585938 14.4062 0.898438 14.25 1.25 14.25H2.5V10.4219C2.5 10.1094 2.61719 9.83594 2.85156 9.60156C3.08594 9.36719 3.35938 9.25 3.67188 9.25H11.875V6.75H10C9.64844 6.75 9.33594 6.63281 9.10156 6.39844C8.86719 6.16406 8.75 5.85156 8.75 5.5V1.75C8.75 1.4375 8.86719 1.125 9.10156 0.890625C9.33594 0.65625 9.64844 0.5 10 0.5H15C15.3125 0.5 15.625 0.65625 15.8594 0.890625C16.0938 1.125 16.25 1.4375 16.25 1.75V5.5C16.25 5.85156 16.0938 6.16406 15.8594 6.39844C15.625 6.63281 15.3125 6.75 15 6.75H13.125V9.25H21.3281C21.6406 9.25 21.9141 9.36719 22.1484 9.60156C22.3828 9.83594 22.5 10.1094 22.5 10.4219V14.25H23.75ZM5 15.5H1.25V19.25H5V15.5ZM14.375 15.5H10.625V19.25H14.375V15.5ZM10 5.5H15V1.75H10V5.5ZM23.75 19.25V15.5H20V19.25H23.75Z" fill="#0E69AF"/>
</svg>
