<svg xmlns="http://www.w3.org/2000/svg" width="268" height="350" viewBox="0 0 268 350">
  <path fill-rule="evenodd" d="M134,171.173 C95.084,171.173 63.535,132.855 63.535,85.587 C63.535,38.318 73.895,0 134,0 C194.105,0 204.463,38.318 204.463,85.587 C204.463,132.855 172.914,171.173 134,171.173 Z M266.935,298.397 C267.018,303.664 267.062,304.575 267.084,304.105 C267.081,305.501 267.079,307.553 267.079,310.504 C267.079,310.504 247.485,350 133.999,350 C20.511,350 0.919,310.504 0.919,310.504 C0.919,305.911 0.913,303.277 0.908,301.853 C0.93,302.613 0.987,302.269 1.11,295.722 C2.61,215.545 14.018,192.43 95.413,177.74 C95.413,177.74 106.999,192.501 133.999,192.501 C160.999,192.501 172.583,177.74 172.583,177.74 C254.876,192.592 265.63,216.055 266.935,298.397 Z"/>
</svg>
