<svg width="25" height="21" viewBox="0 0 25 21" fill="none" xmlns="http://www.w3.org/2000/svg">
<path d="M24.5312 14.4844C24.6875 14.6016 24.8438 14.7578 24.9219 14.9531C25 15.1875 25 15.3828 24.9609 15.5781C24.6484 16.5156 24.1797 17.3359 23.5156 18.0391C23.3594 18.1953 23.2031 18.3125 23.0078 18.3125C22.7734 18.3516 22.5781 18.3125 22.3828 18.1953L21.7578 17.8438C21.4453 18.0781 21.1719 18.2344 20.8984 18.3516V19.0938C20.8984 19.3281 20.8203 19.5234 20.7031 19.6797C20.5469 19.8359 20.3906 19.9531 20.1953 19.9531C19.7266 20.0703 19.2188 20.1094 18.75 20.1094C18.2422 20.1094 17.7734 20.0703 17.3047 19.9531C17.0703 19.9531 16.9141 19.8359 16.7969 19.6797C16.6406 19.5234 16.6016 19.3281 16.6016 19.0938V18.3516C16.2891 18.2344 16.0156 18.0781 15.7422 17.8438L15.0781 18.1953C14.8828 18.3125 14.6875 18.3516 14.4922 18.3125C14.2578 18.3125 14.1016 18.1953 13.9844 18.0391C13.2812 17.3359 12.8125 16.4766 12.5391 15.5391C12.4609 15.3828 12.5 15.1875 12.5781 14.9531C12.6562 14.7578 12.7734 14.6016 12.9688 14.4844L13.5938 14.1328C13.5547 13.8203 13.5547 13.4688 13.5938 13.1172L12.9688 12.7656C12.7734 12.6875 12.6562 12.5312 12.5781 12.2969C12.5 12.1016 12.4609 11.9062 12.5391 11.7109C12.8125 10.7734 13.2812 9.95312 13.9844 9.21094C14.1016 9.05469 14.2578 8.97656 14.4922 8.9375C14.6875 8.9375 14.8828 8.97656 15.0781 9.05469L15.7422 9.40625C16.0156 9.25 16.2891 9.05469 16.6016 8.89844V8.15625C16.6016 7.96094 16.6406 7.76562 16.7969 7.60938C16.9141 7.45312 17.0703 7.375 17.3047 7.29688C18.2422 7.10156 19.2188 7.10156 20.1953 7.29688C20.3906 7.375 20.5469 7.45312 20.7031 7.60938C20.8203 7.76562 20.8984 7.96094 20.8984 8.15625V8.89844C21.1719 9.05469 21.4453 9.25 21.7578 9.40625L22.3828 9.05469C22.5781 8.97656 22.7734 8.9375 23.0078 8.9375C23.2031 8.97656 23.3594 9.05469 23.5156 9.21094C24.1797 9.95312 24.6484 10.7734 24.9609 11.7109C25 11.9062 25 12.1016 24.9219 12.2969C24.8438 12.5312 24.7266 12.6875 24.5312 12.7656L23.9062 13.1172C23.9062 13.4688 23.9062 13.8203 23.9062 14.1328L24.5312 14.4844ZM22.5391 14.7578C22.6172 14.25 22.6562 13.8594 22.6562 13.625C22.6562 13.3906 22.6172 13 22.5391 12.4531L23.6719 11.7891C23.4375 11.2422 23.1641 10.7344 22.7734 10.2656L21.6406 10.9297C21.2109 10.5781 20.8984 10.3438 20.7031 10.2266C20.5078 10.1484 20.1562 9.99219 19.6484 9.75781V8.42969C19.0234 8.35156 18.4375 8.35156 17.8516 8.42969V9.75781C17.3047 9.99219 16.9531 10.1484 16.7578 10.2266C16.5625 10.3438 16.25 10.5781 15.8594 10.9297L14.7266 10.2656C14.3359 10.7344 14.0234 11.2422 13.8281 11.7891L14.9609 12.4531C14.8438 13 14.8047 13.3906 14.8047 13.625C14.8047 13.8594 14.8828 14.25 14.9609 14.7578L13.8281 15.4219C14.0234 16.0078 14.3359 16.5156 14.7266 16.9844L15.8594 16.3203C16.25 16.7109 16.5625 16.9453 16.7578 17.0234C16.9531 17.1406 17.3047 17.2969 17.8516 17.4531V18.7812C18.4375 18.8984 19.0234 18.8984 19.6484 18.7812V17.4531C20.1562 17.2969 20.5078 17.1406 20.7031 17.0234C20.8984 16.9453 21.2109 16.7109 21.6406 16.3203L22.7734 16.9844C23.1641 16.5156 23.4375 16.0078 23.6719 15.4219L22.5391 14.7578ZM18.75 11.0859C19.4531 11.0859 20.0391 11.3594 20.5469 11.8281C21.0156 12.3359 21.2891 12.9219 21.2891 13.625C21.2891 14.3281 21.0156 14.9531 20.5469 15.4219C20.0391 15.8906 19.4531 16.125 18.75 16.125C18.0469 16.125 17.4219 15.8906 16.9531 15.4219C16.4453 14.9531 16.2109 14.3281 16.2109 13.625C16.2109 12.9219 16.4453 12.3359 16.9531 11.8281C17.4219 11.3594 18.0469 11.0859 18.75 11.0859ZM18.75 14.875C19.0625 14.875 19.375 14.7578 19.6484 14.5234C19.8828 14.2891 20 13.9766 20 13.625C20 13.3125 19.8438 13 19.6094 12.7266C19.375 12.4922 19.0625 12.375 18.75 12.375C18.3984 12.375 18.0859 12.5312 17.8516 12.7656C17.5781 13 17.4609 13.3125 17.4609 13.625C17.4609 13.9766 17.5781 14.2891 17.8516 14.5234C18.0859 14.7578 18.3984 14.875 18.75 14.875ZM8.75 10.5C7.8125 10.5 6.99219 10.3047 6.21094 9.83594C5.42969 9.40625 4.84375 8.82031 4.41406 8.03906C3.94531 7.25781 3.75 6.4375 3.75 5.5C3.75 4.60156 3.94531 3.78125 4.41406 3C4.84375 2.21875 5.42969 1.63281 6.21094 1.16406C6.99219 0.734375 7.8125 0.5 8.75 0.5C9.64844 0.5 10.4688 0.734375 11.25 1.16406C12.0312 1.63281 12.6172 2.21875 13.0859 3C13.5156 3.78125 13.75 4.60156 13.75 5.5C13.75 6.4375 13.5156 7.25781 13.0859 8.03906C12.6172 8.82031 12.0312 9.40625 11.25 9.83594C10.4688 10.3047 9.64844 10.5 8.75 10.5ZM8.75 1.75C7.69531 1.75 6.79688 2.14062 6.09375 2.84375C5.35156 3.58594 5 4.48438 5 5.5C5 6.55469 5.35156 7.45312 6.09375 8.15625C6.79688 8.89844 7.69531 9.25 8.75 9.25C9.76562 9.25 10.6641 8.89844 11.4062 8.15625C12.1094 7.45312 12.5 6.55469 12.5 5.5C12.5 4.48438 12.1094 3.58594 11.4062 2.84375C10.6641 2.14062 9.76562 1.75 8.75 1.75ZM1.875 19.25H13.3203C13.8281 19.7578 14.4141 20.1875 15.0391 20.5H1.875C1.32812 20.5 0.898438 20.3438 0.546875 19.9531C0.15625 19.6016 0 19.1719 0 18.625V16.9844C0 16.0469 0.234375 15.1875 0.703125 14.3672C1.17188 13.5859 1.79688 12.9219 2.61719 12.4531C3.39844 11.9844 4.29688 11.75 5.23438 11.75C5.54688 11.75 6.01562 11.8672 6.5625 12.0234C6.91406 12.1406 7.22656 12.2188 7.46094 12.2578C7.85156 12.3359 8.28125 12.375 8.75 12.375C9.45312 12.375 10.1953 12.2578 10.9766 11.9844L11.1328 11.9453C11.0156 12.375 10.9766 12.8047 10.9766 13.2734C10.1953 13.5078 9.45312 13.625 8.75 13.625C7.92969 13.625 7.07031 13.5078 6.21094 13.1953C5.74219 13.0781 5.42969 13 5.23438 13C4.14062 13 3.20312 13.3906 2.42188 14.1719C1.64062 14.9531 1.25 15.8906 1.25 16.9844V18.625C1.25 18.8203 1.28906 18.9766 1.40625 19.0938C1.52344 19.2109 1.67969 19.25 1.875 19.25Z" fill="#0E69AF"/>
</svg>
